<?xml version="1.0" encoding="UTF-8"?>
<svg width="1200pt" height="1200pt" version="1.1" viewBox="0 0 1200 1200" xmlns="http://www.w3.org/2000/svg">
 <path d="m600 1127.3c-290.75 0-527.28-236.54-527.28-527.28s236.54-527.28 527.28-527.28 527.28 236.54 527.28 527.28-236.54 527.28-527.28 527.28zm0-1006.6c-264.28 0-479.28 215-479.28 479.28s215 479.28 479.28 479.28 479.28-215 479.28-479.28-215-479.28-479.28-479.28z"/>
 <path d="m754.67 654.47c-57.215 0-103.75-46.535-103.75-103.75 0-33.84 16.57-65.641 44.316-85.055 5.4375-3.7812 12.926-2.4844 16.715 2.9531 3.793 5.4258 2.4844 12.91-2.9531 16.715-21.336 14.93-34.078 39.371-34.078 65.387 0 43.969 35.773 79.754 79.754 79.754s79.754-35.773 79.754-79.754c0-9.6602-1.7031-19.105-5.0625-28.055-2.3281-6.2031 0.80469-13.129 7.0078-15.457 6.1797-2.2812 13.117 0.80469 15.457 7.0195 4.3789 11.664 6.6016 23.941 6.6016 36.492-0.019531 57.219-46.555 103.75-103.76 103.75z"/>
 <path d="m445.33 654.47c-57.203 0-103.75-46.535-103.75-103.75 0-57.215 46.535-103.75 103.75-103.75 57.215 0 103.75 46.547 103.75 103.75 0 57.207-46.539 103.75-103.75 103.75zm0-183.5c-43.98 0-79.754 35.773-79.754 79.754 0 43.969 35.773 79.754 79.754 79.754s79.754-35.773 79.754-79.754c0-43.973-35.773-79.754-79.754-79.754z"/>
 <path d="m452.89 637.29c-31.754 0-57.574-25.824-57.574-57.574 0-31.754 25.824-57.59 57.574-57.59 31.754 0 57.574 25.824 57.574 57.59 0.003906 31.75-25.82 57.574-57.574 57.574zm0-91.152c-18.516 0-33.574 15.07-33.574 33.59 0 18.516 15.059 33.574 33.574 33.574s33.574-15.059 33.574-33.574c0.003906-18.52-15.059-33.59-33.574-33.59z"/>
 <path d="m747.57 637.29c-31.754 0-57.574-25.824-57.574-57.574 0-31.754 25.824-57.59 57.574-57.59 31.754 0 57.574 25.824 57.574 57.59 0.015624 31.75-25.82 57.574-57.574 57.574zm0-91.152c-18.516 0-33.574 15.07-33.574 33.59 0 18.516 15.059 33.574 33.574 33.574s33.574-15.059 33.574-33.574c0.003906-18.52-15.055-33.59-33.574-33.59z"/>
 <path d="m794 842h-388.01c-6.625 0-12-5.3633-12-12 0-6.6367 5.375-12 12-12h388c6.625 0 12 5.3633 12 12 0 6.6367-5.3633 12-11.988 12z"/>
 <path d="m144.9 396.91c-4.957 0-9.5898-3.0859-11.316-8.0273-2.1953-6.2539 1.0938-13.105 7.3438-15.289l675.71-237.37c6.2539-2.2422 13.105 1.0781 15.301 7.3438 2.1953 6.2539-1.0938 13.105-7.3438 15.289l-675.71 237.38c-1.3203 0.46875-2.6641 0.67188-3.9844 0.67188z"/>
 <path d="m128.4 788.11c-1.9453 0-3.9258-0.46875-5.7461-1.4766-5.8086-3.1797-7.957-10.465-4.7656-16.285l261.1-477.13c3.1914-5.8086 10.477-7.957 16.285-4.7539 5.8086 3.1797 7.957 10.465 4.7656 16.285l-261.09 477.12c-2.1953 3.9844-6.3008 6.2422-10.551 6.2422z"/>
 <path d="m326.46 426.18c-5.8789 0-11.004-4.3203-11.867-10.309-0.9375-6.5625 3.6367-12.637 10.199-13.57l689.24-97.895c6.5898-0.92578 12.637 3.6367 13.57 10.199 0.9375 6.5625-3.6367 12.637-10.199 13.57l-689.24 97.895c-0.57422 0.074219-1.1406 0.10938-1.7031 0.10938z"/>
 <path d="m1103.3 612c-1.2109 0-2.4375-0.17969-3.6484-0.5625l-643.8-204.72c-6.3125-2.0156-9.8047-8.7461-7.8008-15.07 2.0039-6.3125 8.7617-9.8047 15.07-7.8008l643.8 204.72c6.3125 2.0156 9.8047 8.7461 7.8008 15.07-1.6055 5.1094-6.3359 8.3633-11.422 8.3633z"/>
</svg>
